<svg width="150" height="150" viewBox="0 0 150 150" fill="none" xmlns="http://www.w3.org/2000/svg">
<circle cx="75" cy="75" r="75" fill="#09090B"/>
<rect x="30" y="31" width="89" height="89" stroke="#FAFAFA" stroke-width="2"/>
<rect x="35" y="36" width="79" height="79" stroke="#FAFAFA" stroke-width="2"/>
<path d="M59.1457 52.9581L60.1098 53.9731C58.9916 55.0997 58.2404 56.0706 57.8563 56.886C57.4739 57.6354 57.4705 58.411 57.846 59.2129C58.1893 59.9809 58.9555 60.9909 60.1447 62.2428L84.2488 87.6199C85.3415 88.7703 86.2456 89.5528 86.9611 89.9673C87.7105 90.3497 88.4523 90.3853 89.1865 90.074C89.9224 89.6969 90.8148 89.0101 91.8638 88.0138L95.1628 84.8803C96.6177 83.4983 97.643 82.1383 98.2386 80.8003C98.868 79.4301 99.1354 78.0175 99.0408 76.5627C98.9462 75.1079 98.4743 73.5608 97.6252 71.9215C96.7762 70.2822 95.6336 68.5033 94.1975 66.5848L95.3649 65.4761C96.2918 66.6552 97.5909 68.1246 99.2621 69.884C99.9049 70.5607 100.87 71.5428 102.157 72.8303C103.446 74.0518 104.817 75.2919 106.27 76.5506C104.48 78.122 102.502 79.9362 100.337 81.9931C98.1393 84.0161 96.1946 85.8311 94.5028 87.438C93.7246 88.1772 92.7264 89.1253 91.5083 90.2823C90.2902 91.4393 88.9867 92.7096 87.5977 94.0933C86.2104 95.411 84.8054 96.7777 83.3826 98.1936C81.9615 99.5434 80.6072 100.862 79.3197 102.149L78.3555 101.134C79.4417 99.9737 80.176 99.0188 80.5583 98.2694C80.9407 97.5201 80.9272 96.7605 80.5179 95.9908C80.1424 95.1889 79.3762 94.1789 78.2192 92.9608L54.308 67.7868C53.1188 66.5349 52.1496 65.7177 51.4002 65.3353C50.6525 64.887 49.8777 64.8505 49.0759 65.226C48.2757 65.5355 47.3012 66.2036 46.1525 67.2304L45.1883 66.2153C45.9987 65.51 47.029 64.5957 48.2792 63.4725C49.5633 62.3172 50.9159 61.0647 52.337 59.7148C53.6228 58.4936 54.8756 57.2714 56.0953 56.0485C57.349 54.7934 58.3658 53.7632 59.1457 52.9581Z" fill="white"/>
</svg>
