<svg width="91" height="91" viewBox="0 0 91 91" fill="none" xmlns="http://www.w3.org/2000/svg">
<path d="M90 1H1V90H90V1Z" stroke="#FAFAFA" stroke-width="2"/>
<path d="M85 6H6V85H85V6Z" stroke="#FAFAFA" stroke-width="2"/>
<path d="M30.1458 22.9581L31.1099 23.9731C29.9917 25.0997 29.2405 26.0706 28.8564 26.886C28.474 27.6354 28.4706 28.411 28.8461 29.2129C29.1894 29.9809 29.9556 30.9909 31.1448 32.2428L55.2489 57.6199C56.3416 58.7703 57.2457 59.5528 57.9612 59.9673C58.7106 60.3497 59.4524 60.3853 60.1866 60.074C60.9225 59.6969 61.8149 59.0101 62.8639 58.0138L66.1629 54.8803C67.6178 53.4983 68.6431 52.1383 69.2387 50.8003C69.8681 49.4301 70.1355 48.0175 70.0409 46.5627C69.9463 45.1079 69.4744 43.5608 68.6253 41.9215C67.7763 40.2822 66.6337 38.5033 65.1976 36.5848L66.365 35.4761C67.2919 36.6552 68.591 38.1246 70.2622 39.884C70.905 40.5607 71.8701 41.5428 73.1571 42.8303C74.4461 44.0518 75.8171 45.2919 77.2701 46.5506C75.4801 48.122 73.5021 49.9362 71.3371 51.9931C69.1394 54.0161 67.1947 55.8311 65.5029 57.438C64.7247 58.1772 63.7265 59.1253 62.5084 60.2823C61.2903 61.4393 59.9868 62.7096 58.5978 64.0933C57.2105 65.411 55.8055 66.7777 54.3827 68.1936C52.9616 69.5434 51.6073 70.862 50.3198 72.149L49.3556 71.134C50.4418 69.9737 51.176 69.0188 51.5583 68.2694C51.9407 67.5201 51.9273 66.7605 51.518 65.9908C51.1425 65.1889 50.3763 64.1789 49.2193 62.9608L25.3081 37.7868C24.1189 36.5349 23.1497 35.7177 22.4003 35.3353C21.6526 34.887 20.8778 34.8505 20.076 35.226C19.2758 35.5355 18.3013 36.2036 17.1526 37.2304L16.1884 36.2153C16.9988 35.51 18.0291 34.5957 19.2793 33.4725C20.5634 32.3172 21.916 31.0647 23.3371 29.7148C24.6229 28.4936 25.8757 27.2714 27.0954 26.0485C28.3491 24.7934 29.3659 23.7632 30.1458 22.9581Z" fill="white"/>
</svg>
