<svg width="180" height="183" viewBox="0 0 180 183" fill="none" xmlns="http://www.w3.org/2000/svg">
<circle cx="90" cy="105" r="75" fill="#09090B"/>
<path d="M58.3387 66.6718L59.9915 68.4119C58.0745 70.3432 56.7867 72.0077 56.1283 73.4054C55.4728 74.6901 55.4669 76.0197 56.1106 77.3944C56.6992 78.711 58.0127 80.4424 60.0512 82.5886L101.373 126.092C103.246 128.064 104.796 129.406 106.022 130.116C107.307 130.772 108.579 130.833 109.837 130.299C111.099 129.653 112.629 128.475 114.427 126.767L120.082 121.396C122.576 119.027 124.334 116.695 125.355 114.401C126.434 112.052 126.892 109.631 126.73 107.137C126.568 104.643 125.759 101.991 124.304 99.1806C122.848 96.3703 120.889 93.3208 118.428 90.032L120.429 88.1312C122.018 90.1527 124.245 92.6715 127.11 95.6877C128.212 96.8478 129.866 98.5314 132.073 100.739C134.282 102.832 136.633 104.958 139.123 107.116C136.055 109.81 132.665 112.92 128.952 116.446C125.185 119.914 121.851 123.026 118.951 125.78C117.617 127.048 115.906 128.673 113.817 130.656C111.729 132.64 109.495 134.817 107.114 137.189C104.735 139.448 102.327 141.791 99.8877 144.218C97.4515 146.532 95.1298 148.793 92.9227 150.999L91.2699 149.259C93.1319 147.27 94.3906 145.633 95.0461 144.348C95.7016 143.064 95.6785 141.762 94.9768 140.442C94.3331 139.067 93.0196 137.336 91.0362 135.248L50.0454 92.0925C48.0069 89.9463 46.3453 88.5455 45.0607 87.89C43.779 87.1214 42.4508 87.0589 41.0761 87.7026C39.7044 88.2332 38.0339 89.3785 36.0646 91.1387L34.4118 89.3985C35.801 88.1893 37.5672 86.622 39.7105 84.6966C41.9117 82.7161 44.2305 80.5688 46.6667 78.2549C48.8708 76.1612 51.0185 74.0662 53.1095 71.9697C55.2586 69.818 57.0017 68.0521 58.3387 66.6718Z" fill="white"/>
</svg>
